{
  "accessors": [
    {
      "bufferView": 2,
      "componentType": 5126,
      "count": 735,
      "max": [
        52.55999755859375,
        114.90623474121094,
        61.541999816894531
      ],
      "min": [
        -52.554397583007812,
        -0.0241851806640625,
        -61.557331085205078
      ],
      "type": "VEC3"
    },
    {
      "bufferView": 2,
      "byteOffset": 8820,
      "componentType": 5126,
      "count": 735,
      "max": [
        1,
        1,
        1
      ],
      "min": [
        -1,
        -1,
        -1
      ],
      "type": "VEC3"
    },
    {
      "bufferView": 3,
      "componentType": 5126,
      "count": 735,
      "max": [
        1,
        1,
        1,
        1
      ],
      "min": [
        -1,
        -1,
        -1,
        1
      ],
      "type": "VEC4"
    },
    {
      "bufferView": 1,
      "componentType": 5126,
      "count": 735,
      "max": [
        0.98697030544281006,
        0.99668037891387939
      ],
      "min": [
        0.0031350851058959961,
        0.0098981857299804688
      ],
      "type": "VEC2"
    },
    {
      "bufferView": 1,
      "byteOffset": 5880,
      "componentType": 5126,
      "count": 735,
      "max": [
        0.98697030544281006,
        0.99668037891387939
      ],
      "min": [
        0.0031350851058959961,
        0.0098981857299804688
      ],
      "type": "VEC2"
    },
    {
      "bufferView": 0,
      "componentType": 5125,
      "count": 2268,
      "max": [
        734
      ],
      "min": [
        0
      ],
      "type": "SCALAR"
    },
    {
      "bufferView": 2,
      "byteOffset": 17640,
      "componentType": 5126,
      "count": 735,
      "max": [
        74.817817687988281,
        80.453315734863281,
        83.790214538574219
      ],
      "min": [
        -74.818778991699219,
        -0.011132955551147461,
        -83.790214538574219
      ],
      "type": "VEC3"
    },
    {
      "bufferView": 2,
      "byteOffset": 26460,
      "componentType": 5126,
      "count": 735,
      "max": [
        1,
        1,
        1
      ],
      "min": [
        -1,
        -1,
        -1
      ],
      "type": "VEC3"
    },
    {
      "bufferView": 3,
      "byteOffset": 11760,
      "componentType": 5126,
      "count": 735,
      "max": [
        1,
        1,
        1,
        1
      ],
      "min": [
        -1,
        -1,
        -1,
        1
      ],
      "type": "VEC4"
    },
    {
      "bufferView": 1,
      "byteOffset": 11760,
      "componentType": 5126,
      "count": 735,
      "max": [
        0.98697030544281006,
        0.99668037891387939
      ],
      "min": [
        0.0031350851058959961,
        0.0098981857299804688
      ],
      "type": "VEC2"
    },
    {
      "bufferView": 1,
      "byteOffset": 17640,
      "componentType": 5126,
      "count": 735,
      "max": [
        0.98697030544281006,
        0.99668037891387939
      ],
      "min": [
        0.0031350851058959961,
        0.0098981857299804688
      ],
      "type": "VEC2"
    },
    {
      "bufferView": 0,
      "byteOffset": 9072,
      "componentType": 5125,
      "count": 2268,
      "max": [
        734
      ],
      "min": [
        0
      ],
      "type": "SCALAR"
    }
  ],
  "asset": {
    "extras": {
      "author": "Skipper Research & Development, LLC (https://sketchfab.com/skipperrandd)",
      "license": "CC-BY-4.0 (http://creativecommons.org/licenses/by/4.0/)",
      "source": "https://sketchfab.com/models/293db87a6a3548cfa342e71c1b89231c",
      "title": "Industrial 01 - Box Incognito"
    },
    "generator": "Sketchfab-3.34.6",
    "version": "2.0"
  },
  "bufferViews": [
    {
      "buffer": 0,
      "byteLength": 18144,
      "byteOffset": 0,
      "name": "floatBufferViews",
      "target": 34963
    },
    {
      "buffer": 0,
      "byteLength": 23520,
      "byteOffset": 18144,
      "byteStride": 8,
      "name": "floatBufferViews",
      "target": 34962
    },
    {
      "buffer": 0,
      "byteLength": 35280,
      "byteOffset": 41664,
      "byteStride": 12,
      "name": "floatBufferViews",
      "target": 34962
    },
    {
      "buffer": 0,
      "byteLength": 23520,
      "byteOffset": 76944,
      "byteStride": 16,
      "name": "floatBufferViews",
      "target": 34962
    }
  ],
  "buffers": [
    {
      "byteLength": 100464,
      "uri": "scene.bin"
    }
  ],
  "images": [
    {
      "uri": "textures/boxCorrugated_01_A_MAT_metallicRoughness.png"
    },
    {
      "uri": "textures/boxCorrugated_01_A_MAT_normal.png"
    },
    {
      "uri": "textures/boxCorrugated_01_A_MAT_baseColor.png"
    }
  ],
  "materials": [
    {
      "doubleSided": true,
      "emissiveFactor": [
        0,
        0,
        0
      ],
      "name": "boxCorrugated_01_A_MAT",
      "normalTexture": {
        "index": 1,
        "scale": 1,
        "texCoord": 0
      },
      "occlusionTexture": {
        "index": 0,
        "strength": 1,
        "texCoord": 0
      },
      "pbrMetallicRoughness": {
        "baseColorFactor": [
          1,
          1,
          1,
          1
        ],
        "baseColorTexture": {
          "index": 2,
          "texCoord": 0
        },
        "metallicFactor": 1,
        "metallicRoughnessTexture": {
          "index": 0,
          "texCoord": 0
        },
        "roughnessFactor": 1
      }
    }
  ],
  "meshes": [
    {
      "name": "boxCorrugated_01_tall_boxCorrugated_01_A_MAT_0",
      "primitives": [
        {
          "attributes": {
            "NORMAL": 1,
            "POSITION": 0,
            "TANGENT": 2,
            "TEXCOORD_0": 3,
            "TEXCOORD_1": 4
          },
          "indices": 5,
          "material": 0,
          "mode": 4
        }
      ]
    },
    {
      "name": "boxCorrugated_01_flat_boxCorrugated_01_A_MAT_0",
      "primitives": [
        {
          "attributes": {
            "NORMAL": 7,
            "POSITION": 6,
            "TANGENT": 8,
            "TEXCOORD_0": 9,
            "TEXCOORD_1": 10
          },
          "indices": 11,
          "material": 0,
          "mode": 4
        }
      ]
    }
  ],
  "nodes": [
    {
      "children": [
        1
      ],
      "name": "RootNode (gltf orientation matrix)",
      "rotation": [
        -0.70710678118654746,
        -0,
        -0,
        0.70710678118654757
      ]
    },
    {
      "children": [
        2
      ],
      "name": "RootNode (model correction matrix)"
    },
    {
      "children": [
        3
      ],
      "matrix": [
        1,
        0,
        0,
        0,
        0,
        0,
        1,
        0,
        0,
        -1,
        0,
        0,
        0,
        0,
        0,
        1
      ],
      "name": "d8d810586e364a33adbb95798eca1a24.fbx"
    },
    {
      "children": [
        4
      ],
      "name": "RootNode"
    },
    {
      "children": [
        5,
        7
      ],
      "matrix": [
        1,
        0,
        0,
        0,
        0,
        0.99999999999998668,
        1.6292067073209113e-07,
        0,
        0,
        -1.6292067073209113e-07,
        0.99999999999998668,
        0,
        0,
        0,
        0,
        1
      ],
      "name": "boxCorrugated_01_incognito"
    },
    {
      "children": [
        6
      ],
      "matrix": [
        0.92387943904730163,
        1.9009273271674387e-15,
        -0.38268350225265418,
        0,
        -5.778360261082056e-08,
        -0.9999999999999889,
        -1.3950192248397134e-07,
        0,
        -0.38268350225264985,
        1.50995789310396e-07,
        -0.92387943904729142,
        0,
        5.3383564949035645,
        115.14884948730469,
        86.579498291015625,
        1
      ],
      "name": "boxCorrugated_01_tall"
    },
    {
      "mesh": 0,
      "name": "boxCorrugated_01_tall_boxCorrugated_01_A_MAT_0"
    },
    {
      "children": [
        8
      ],
      "matrix": [
        1,
        0,
        0,
        0,
        0,
        1,
        2.646977960169688e-23,
        0,
        0,
        -2.646977960169688e-23,
        1,
        0,
        80.875938415527344,
        0.42687124013900757,
        -41.252456665039062,
        1
      ],
      "name": "boxCorrugated_01_flat"
    },
    {
      "mesh": 1,
      "name": "boxCorrugated_01_flat_boxCorrugated_01_A_MAT_0"
    }
  ],
  "samplers": [
    {
      "magFilter": 9729,
      "minFilter": 9987,
      "wrapS": 10497,
      "wrapT": 10497
    }
  ],
  "scene": 0,
  "scenes": [
    {
      "name": "OSG_Scene",
      "nodes": [
        0
      ]
    }
  ],
  "textures": [
    {
      "sampler": 0,
      "source": 0
    },
    {
      "sampler": 0,
      "source": 1
    },
    {
      "sampler": 0,
      "source": 2
    }
  ]
}

