<?xml version="1.0" encoding="utf-8"?>
<!-- Generator: Adobe Illustrator 16.0.0, SVG Export Plug-In . SVG Version: 6.00 Build 0)  -->
<!DOCTYPE svg PUBLIC "-//W3C//DTD SVG 1.1//EN" "http://www.w3.org/Graphics/SVG/1.1/DTD/svg11.dtd">
<svg version="1.1" id="Layer_1" xmlns="http://www.w3.org/2000/svg" xmlns:xlink="http://www.w3.org/1999/xlink" x="0px" y="0px"
	 width="600.011px" height="99.605px" viewBox="0 0 600.011 99.605" enable-background="new 0 0 600.011 99.605"
	 xml:space="preserve">
<g>
	<g>
		<path fill="#FFFFFF" d="M0,1.882h24.599v36.431h18.017V1.882h24.601v95.842H42.616V57.669H24.599v40.055H0V1.882z"/>
		<path fill="#FFFFFF" d="M87.507,1.882h24.866v95.842H87.507V1.882z"/>
		<path fill="#FFFFFF" d="M160.214,99.605c-21.643,0-34.549-16.128-34.549-46.37C125.665,18.017,138.438,0,163.037,0
			c20.567,0,33.607,13.308,33.607,34.813c0,0.404,0,0.946,0,1.347h-23.259c0-11.964-3.229-17.746-10.483-17.746
			c-9.275,0-11.157,11.162-11.157,34.82c0,19.354,2.015,28.628,11.557,28.628c6.854,0,11.159-5.378,11.159-15.189
			c0-0.134,0-0.268,0-0.398h-11.695V50.003h33.341v48.125h-10.353l-4.568-7.663C175.671,96.651,168.816,99.605,160.214,99.605z"/>
		<path fill="#FFFFFF" d="M214.895,1.882h24.596v36.431h18.015V1.882h24.601v95.842h-24.601V57.669h-18.015v40.055h-24.596V1.882z"
			/>
		<path fill="#FFFFFF" d="M354.173,20.163h-20.57V1.882h65.736v18.281h-20.575v77.562h-24.59V20.163z"/>
		<path fill="#FFFFFF" d="M414.105,1.882h24.87v95.842h-24.87V1.882z"/>
		<path fill="#FFFFFF" d="M486.809,1.882c26.621,0,40.871,16.667,40.871,47.988c0,31.325-14.25,47.854-40.871,47.854h-28.764V1.882
			H486.809z M482.645,80.249h2.553c12.77,0,16.401-9.138,16.401-30.379c0-21.235-3.631-30.513-16.401-30.513h-2.553V80.249z"/>
		<path fill="#FFFFFF" d="M539.928,1.882h60.083v18.281h-35.487v18.682h23.663v18.284h-23.663v22.318h35.487v18.277h-60.083V1.882z"
			/>
	</g>
</g>
</svg>
